<svg width="228" height="201" viewBox="0 0 228 201" fill="none" xmlns="http://www.w3.org/2000/svg">
<path d="M62.7109 5.38477H14.0352C12.0126 5.38477 10.373 7.02433 10.373 9.04696V47.3617C10.373 49.3841 12.0126 51.0238 14.0352 51.0238H44.4795L50.1189 59.7265C50.8719 60.8887 52.5725 60.8887 53.3255 59.7265L58.9649 51.0238H62.7109C64.7333 51.0238 66.373 49.3843 66.373 47.3617V9.04696C66.373 7.0245 64.7335 5.38477 62.7109 5.38477Z" fill="#6A93D8"/>
<path fill-rule="evenodd" clip-rule="evenodd" d="M46.973 21.7711C46.973 16.8475 42.6135 14.7891 38.1854 14.7891C33.9638 14.7891 30.09 17.824 30.0908 21.2487C30.0908 22.6446 31.1301 23.378 32.3408 23.378C33.9014 23.378 34.3614 22.3803 34.8533 21.3133C35.4185 20.0873 36.0259 18.77 38.3935 18.77C40.4704 18.77 41.713 19.8874 41.713 21.7719C41.713 23.4008 40.3431 24.4677 38.9068 25.5864C37.3239 26.8193 35.6603 28.115 35.6603 30.2949C35.6603 31.4123 36.3868 32.6336 37.8743 32.6336C39.5009 32.6336 39.828 31.7634 40.1819 30.8217C40.3249 30.4414 40.4722 30.0494 40.7113 29.6983C41.0449 29.2039 41.7462 28.6998 42.5633 28.1126C44.4572 26.7514 46.973 24.9431 46.973 21.7711ZM40.8493 37.7648C40.8493 36.1909 39.5667 34.9004 38.0123 34.9004C36.4554 34.9004 35.1745 36.1917 35.1745 37.7648C35.1745 39.3403 36.4554 40.6291 38.0123 40.6291C39.5692 40.6291 40.8493 39.3387 40.8493 37.7648Z" fill="white"/>
<path d="M16.2188 78.7855V86.4439C16.2188 87.43 15.4162 88.2295 14.4264 88.2295L8.21875 88.2552L4.58239 92.24V88.2552H2.01111C1.0213 88.2552 0.21875 87.4557 0.21875 86.4696V78.8113C0.21875 77.8252 1.0213 77.0257 2.01111 77.0257L14.426 77C15.4162 77 16.2188 77.7995 16.2188 78.7855Z" fill="#D95C9F"/>
<path d="M167.798 17.7177V29.2904C167.798 30.7805 166.585 31.9886 165.09 31.9886L155.709 32.0275L150.214 38.0489V32.0275H146.329C144.833 32.0275 143.62 30.8193 143.62 29.3293V17.7566C143.62 16.2665 144.833 15.0584 146.329 15.0584L165.089 15.0195C166.585 15.0195 167.798 16.2277 167.798 17.7177Z" fill="#D95C9F"/>
<path d="M162.762 26.5338C163.062 26.5338 163.305 26.7726 163.305 27.0669C163.305 27.3611 163.062 27.6 162.762 27.6H148.656C148.356 27.6 148.113 27.3611 148.113 27.0669C148.113 26.7726 148.356 26.5338 148.656 26.5338H162.762ZM162.762 23.122C163.062 23.122 163.305 23.3608 163.305 23.6551C163.305 23.9494 163.062 24.1882 162.762 24.1882H148.656C148.356 24.1882 148.113 23.9494 148.113 23.6551C148.113 23.3608 148.356 23.122 148.656 23.122H162.762ZM155.902 20.1367C156.209 20.1367 156.458 20.3755 156.458 20.6698C156.458 20.9641 156.209 21.2029 155.902 21.2029H148.67C148.362 21.2029 148.113 20.9641 148.113 20.6698C148.113 20.3755 148.362 20.1367 148.67 20.1367H155.902Z" fill="white"/>
<path d="M172.782 9.03832L154.022 9C152.525 9 151.312 10.2081 151.312 11.6982V15.0494L165.089 15.0209C166.585 15.0209 167.797 16.2291 167.797 17.7196V27.8144L171.644 32.0294V26.0079H172.782C174.278 26.0079 175.49 24.7998 175.49 23.3098V11.737C175.49 10.2464 174.278 9.03832 172.782 9.03832Z" fill="#96B3E3"/>
<path d="M68.6113 110.717V122.205C68.6113 123.684 67.4075 124.883 65.9228 124.883L56.6113 124.922L51.1568 130.899V124.922H47.2999C45.8151 124.922 44.6113 123.723 44.6113 122.244V110.756C44.6113 109.277 45.8151 108.078 47.2999 108.078L65.9222 108.039C67.4075 108.039 68.6113 109.238 68.6113 110.717Z" fill="#4B6EB2"/>
<path d="M63.6124 119.469C63.9102 119.469 64.1509 119.706 64.1509 119.998C64.1509 120.29 63.9102 120.527 63.6124 120.527H49.6098C49.312 120.527 49.0713 120.29 49.0713 119.998C49.0713 119.706 49.312 119.469 49.6098 119.469H63.6124ZM63.6124 116.082C63.9102 116.082 64.1509 116.32 64.1509 116.612C64.1509 116.904 63.9102 117.141 63.6124 117.141H49.6098C49.312 117.141 49.0713 116.904 49.0713 116.612C49.0713 116.32 49.312 116.082 49.6098 116.082H63.6124ZM56.8023 113.119C57.1076 113.119 57.3545 113.356 57.3545 113.648C57.3545 113.94 57.1076 114.177 56.8023 114.177H49.6235C49.3181 114.177 49.0713 113.94 49.0713 113.648C49.0713 113.356 49.3181 113.119 49.6235 113.119H56.8023Z" fill="white"/>
<path d="M38.1261 169H10.3114C9.15565 169 8.21875 169.937 8.21875 171.093V192.987C8.21875 194.142 9.15565 195.079 10.3114 195.079H27.7081L30.9306 200.052C31.3609 200.717 32.3327 200.717 32.763 200.052L35.9855 195.079H38.1261C39.2818 195.079 40.2188 194.143 40.2188 192.987V171.093C40.2188 169.937 39.2819 169 38.1261 169Z" fill="#BD4784"/>
<path fill-rule="evenodd" clip-rule="evenodd" d="M29.1313 178.363C29.1313 175.549 26.6402 174.373 24.1098 174.373C21.6975 174.373 19.4839 176.107 19.4844 178.064C19.4844 178.862 20.0782 179.281 20.7701 179.281C21.6618 179.281 21.9247 178.711 22.2058 178.101C22.5288 177.401 22.8759 176.648 24.2288 176.648C25.4156 176.648 26.1256 177.286 26.1256 178.363C26.1256 179.294 25.3428 179.904 24.5221 180.543C23.6176 181.247 22.6669 181.988 22.6669 183.234C22.6669 183.872 23.0821 184.57 23.9321 184.57C24.8616 184.57 25.0485 184.073 25.2507 183.535C25.3324 183.317 25.4166 183.093 25.5532 182.893C25.7439 182.61 26.1446 182.322 26.6115 181.986C27.6937 181.209 29.1313 180.175 29.1313 178.363ZM25.6322 187.502C25.6322 186.603 24.8993 185.865 24.0111 185.865C23.1215 185.865 22.3895 186.603 22.3895 187.502C22.3895 188.402 23.1215 189.139 24.0111 189.139C24.9007 189.139 25.6322 188.401 25.6322 187.502Z" fill="white"/>
<path d="M93.2188 1.78554V9.44392C93.2188 10.43 94.0213 11.2295 95.0111 11.2295L101.219 11.2552L104.855 15.24V11.2552H107.426C108.416 11.2552 109.219 10.4557 109.219 9.46964V1.81126C109.219 0.825211 108.416 0.02572 107.426 0.02572L95.0115 0C94.0213 0 93.2188 0.799491 93.2188 1.78554Z" fill="#E48DBB"/>
<path d="M227.219 10.7855V18.4439C227.219 19.43 226.416 20.2295 225.426 20.2295L219.219 20.2552L215.582 24.24V20.2552H213.011C212.021 20.2552 211.219 19.4557 211.219 18.4696V10.8113C211.219 9.82521 212.021 9.02572 213.011 9.02572L225.426 9C226.416 9 227.219 9.79949 227.219 10.7855Z" fill="#4B6EB2"/>
</svg>
