<svg width="228" height="201" viewBox="0 0 228 201" fill="none" xmlns="http://www.w3.org/2000/svg">
<path d="M56.9995 37.5124L64.0966 36.0736C67.447 35.3941 67.447 30.6058 64.0966 29.9264L56.9995 28.4875C50.0057 27.0696 44.5398 21.6037 43.1218 14.6099L41.683 7.51281C41.0035 4.1624 36.2152 4.1624 35.5358 7.51281L34.0969 14.6099C32.6789 21.6037 27.213 27.0696 20.2193 28.4875L13.1222 29.9264C9.77177 30.6058 9.77177 35.3941 13.1222 36.0736L20.2193 37.5124C27.213 38.9304 32.6789 44.3963 34.0969 51.3901L35.5358 58.4872C36.2152 61.8376 41.0035 61.8376 41.683 58.4872L43.1218 51.3901C44.5396 44.3963 50.0057 38.9306 56.9995 37.5124Z" fill="#F8AA24"/>
<path d="M13.8637 86.2893L15.8914 85.8782C16.8487 85.684 16.8487 84.3159 15.8914 84.1218L13.8637 83.7107C11.8655 83.3056 10.3038 81.7439 9.89865 79.7457L9.48755 77.7179C9.29342 76.7607 7.92533 76.7607 7.7312 77.7179L7.32011 79.7457C6.91497 81.7439 5.35328 83.3056 3.35506 83.7107L1.32732 84.1218C0.370059 84.3159 0.370059 85.684 1.32732 85.8782L3.35506 86.2893C5.35328 86.6944 6.91497 88.2561 7.32011 90.2543L7.7312 92.2821C7.92533 93.2393 9.29342 93.2393 9.48755 92.2821L9.89865 90.2543C10.3037 88.2561 11.8655 86.6945 13.8637 86.2893Z" fill="#F8AA24"/>
<path d="M170.118 26.5785L174.174 25.7563C176.088 25.3681 176.088 22.6319 174.174 22.2436L170.118 21.4215C166.122 20.6112 162.998 17.4878 162.188 13.4914L161.366 9.43589C160.977 7.52137 158.241 7.52137 157.853 9.43589L157.031 13.4914C156.221 17.4878 153.097 20.6112 149.101 21.4215L145.045 22.2436C143.131 22.6319 143.131 25.3681 145.045 25.7563L149.101 26.5785C153.097 27.3888 156.221 30.5122 157.031 34.5086L157.853 38.5641C158.241 40.4786 160.977 40.4786 161.366 38.5641L162.188 34.5086C162.998 30.5122 166.122 27.3889 170.118 26.5785Z" fill="#F8AA24"/>
<path d="M64.4909 120.934L67.5325 120.317C68.9684 120.026 68.9684 117.974 67.5325 117.683L64.4909 117.066C61.4935 116.458 59.151 114.116 58.5433 111.119L57.9266 108.077C57.6354 106.641 55.5833 106.641 55.2921 108.077L54.6755 111.119C54.0678 114.116 51.7252 116.458 48.7279 117.066L45.6863 117.683C44.2504 117.974 44.2504 120.026 45.6863 120.317L48.7279 120.934C51.7252 121.542 54.0678 123.884 54.6755 126.881L55.2921 129.923C55.5833 131.359 57.6354 131.359 57.9266 129.923L58.5433 126.881C59.1509 123.884 61.4935 121.542 64.4909 120.934Z" fill="#FAC366"/>
<path d="M35.118 187.579L39.1735 186.756C41.088 186.368 41.088 183.632 39.1735 183.244L35.118 182.421C31.1216 181.611 27.9982 178.488 27.1879 174.491L26.3657 170.436C25.9775 168.521 23.2413 168.521 22.853 170.436L22.0308 174.491C21.2206 178.488 18.0972 181.611 14.1007 182.421L10.0453 183.244C8.13074 183.632 8.13074 186.368 10.0453 186.756L14.1007 187.579C18.0972 188.389 21.2206 191.512 22.0308 195.509L22.853 199.564C23.2413 201.479 25.9775 201.479 26.3657 199.564L27.1879 195.509C27.9981 191.512 31.1216 188.389 35.118 187.579Z" fill="#F8AA24"/>
<path d="M106.864 9.28926L108.891 8.87817C109.849 8.68404 109.849 7.31595 108.891 7.12182L106.864 6.71073C104.865 6.30559 103.304 4.7439 102.899 2.74569L102.488 0.717947C102.293 -0.239316 100.925 -0.239316 100.731 0.717947L100.32 2.74569C99.915 4.7439 98.3533 6.30559 96.3551 6.71073L94.3273 7.12182C93.3701 7.31595 93.3701 8.68404 94.3273 8.87817L96.3551 9.28926C98.3533 9.6944 99.915 11.2561 100.32 13.2543L100.731 15.2821C100.925 16.2393 102.293 16.2393 102.488 15.2821L102.899 13.2543C103.304 11.2561 104.865 9.69447 106.864 9.28926Z" fill="#FAC366"/>
<path d="M224.864 18.2893L226.891 17.8782C227.849 17.684 227.849 16.3159 226.891 16.1218L224.864 15.7107C222.865 15.3056 221.304 13.7439 220.899 11.7457L220.488 9.71795C220.293 8.76068 218.925 8.76068 218.731 9.71795L218.32 11.7457C217.915 13.7439 216.353 15.3056 214.355 15.7107L212.327 16.1218C211.37 16.3159 211.37 17.684 212.327 17.8782L214.355 18.2893C216.353 18.6944 217.915 20.2561 218.32 22.2543L218.731 24.2821C218.925 25.2393 220.293 25.2393 220.488 24.2821L220.899 22.2543C221.304 20.2561 222.865 18.6945 224.864 18.2893Z" fill="#FAC366"/>
</svg>
