<svg width="261" height="136" viewBox="0 0 261 136" fill="none" xmlns="http://www.w3.org/2000/svg">
<path d="M216.951 131.998H4V5.02568L255.401 31.7391L216.951 131.998Z" fill="#DCF0E6" stroke="#34496B" stroke-width="8"/>
<g clip-path="url(#clip0_2448_8782)">
<path d="M18.1211 99.1694C18.1211 97.5481 19.4345 96.2339 21.0547 96.2339H106.128C107.748 96.2339 109.061 97.5481 109.061 99.1694V106.508C109.061 108.129 107.748 109.444 106.128 109.444H21.0547C19.4345 109.444 18.1211 108.129 18.1211 106.508V99.1694Z" fill="#D4D0BC"/>
<path d="M24.7216 50H102.461V58.0726C102.461 59.6938 101.148 61.0081 99.5274 61.0081H27.6552C26.035 61.0081 24.7216 59.6938 24.7216 58.0726V50Z" fill="#D4D0BC"/>
<path fill-rule="evenodd" clip-rule="evenodd" d="M40.119 61.0078H29.8516V96.2336H40.119V61.0078ZM59.1872 61.0078H48.9197V96.2336H59.1872V61.0078ZM67.9878 61.0078H78.2553V96.2336H67.9878V61.0078ZM97.3234 61.0078H87.056V96.2336H97.3234V61.0078Z" fill="#A09D90"/>
<path d="M64.3229 24.6797L31.3203 44.8611H97.3254L64.3229 24.6797Z" fill="#D4D0BC"/>
<rect x="59.1914" y="35.3203" width="10.2675" height="4.40322" rx="2.20161" fill="#A09D90"/>
<path fill-rule="evenodd" clip-rule="evenodd" d="M63.7751 19.1758L20.7848 44.5341C18.2113 46.052 19.2872 49.9984 22.2745 49.9984H105.276C108.263 49.9984 109.339 46.052 106.765 44.5341L63.7751 19.1758ZM31.3226 44.8613L64.3252 24.6798L97.3277 44.8613H31.3226Z" fill="#E8E2CC"/>
<path d="M95.0581 61.3436C83.4756 61.3436 74.0859 59.1795 74.0859 56.7066C74.0859 54.2336 83.4756 52.4258 95.0581 52.4258C106.64 52.4258 116.03 54.2336 116.03 56.7066C116.03 59.179 106.64 61.3436 95.0581 61.3436Z" fill="#FFD13A"/>
<path d="M78.5404 66.7709C78.5404 69.4589 88.4071 71.8111 100.578 71.8111C112.749 71.8111 122.616 69.4583 122.616 66.7709C122.616 64.0829 112.749 62.1179 100.578 62.1179C88.4071 62.1179 78.5404 64.0829 78.5404 66.7709Z" fill="#FFD13A"/>
<path d="M106.54 82.4744C93.9673 82.4744 83.7753 79.887 83.7753 76.9302C83.7753 73.9734 93.9673 71.8119 106.54 71.8119C119.112 71.8119 129.304 73.9734 129.304 76.9302C129.304 79.8863 119.112 82.4744 106.54 82.4744Z" fill="#FFD13A"/>
<path d="M78.5424 87.4186C78.5424 89.8198 86.5845 92.1261 97.2628 92.5908C89.3144 93.3588 83.7753 95.1064 83.7753 97.2861C83.7753 99.4212 89.0896 101.364 96.777 102.278C87.7054 102.865 81.1589 104.555 81.1589 106.709C81.1589 109.397 91.2434 111.926 103.816 111.926C116.388 111.926 126.687 109.396 126.687 106.709C126.687 104.795 121.519 103.247 114.002 102.515C122.909 101.738 129.304 99.6276 129.304 97.2861C129.304 94.6156 120.99 92.5938 110.117 92.2273C118.295 91.3762 124.071 89.4304 124.071 87.4186C124.071 84.7307 113.879 82.7656 101.307 82.7656C88.7344 82.7656 78.5424 84.7307 78.5424 87.4186Z" fill="#FFD13A"/>
<path d="M112.807 56.7067C112.807 58.0105 106.098 59.9047 95.0619 59.9047C84.0267 59.9047 77.3164 58.0105 77.3164 56.7067C77.3164 55.4029 84.0255 53.4961 95.0619 53.4961C106.097 53.4961 112.807 55.4029 112.807 56.7067Z" fill="#FEDC6E"/>
<path d="M100.582 70.2476C112.179 70.2476 119.229 68.1887 119.229 66.7715C119.229 65.3543 112.178 63.2817 100.582 63.2817C88.9848 63.2817 81.9348 65.3543 81.9348 66.7715C81.9348 68.1887 88.986 70.2476 100.582 70.2476Z" fill="#FEDC6E"/>
<path d="M125.801 76.9298C125.801 78.4888 118.518 80.7535 106.539 80.7535C94.5608 80.7535 87.2771 78.4888 87.2771 76.9298C87.2771 75.3709 94.5596 73.0911 106.539 73.0911C118.517 73.0911 125.801 75.3709 125.801 76.9298Z" fill="#FEDC6E"/>
<path d="M101.313 90.8925C113.292 90.8925 120.575 88.8337 120.575 87.4165C120.575 85.9993 113.291 83.9267 101.313 83.9267C89.3335 83.9267 82.0511 85.9993 82.0511 87.4165C82.0511 88.8337 89.3348 90.8925 101.313 90.8925Z" fill="#FEDC6E"/>
<path d="M125.801 97.2879C125.801 98.8468 118.518 101.112 106.539 101.112C94.5608 101.112 87.2771 98.8468 87.2771 97.2879C87.2771 95.729 94.5596 93.4492 106.539 93.4492C118.517 93.4492 125.801 95.729 125.801 97.2879Z" fill="#FEDC6E"/>
<path d="M123.191 106.709C123.191 108.126 115.909 110.185 103.929 110.185C91.9512 110.185 84.6675 108.126 84.6675 106.709C84.6675 105.292 91.9499 103.219 103.929 103.219C115.907 103.219 123.191 105.292 123.191 106.709Z" fill="#FEDC6E"/>
<path d="M116.042 56.4648C116.042 58.9182 106.651 61.3074 95.0705 61.3074C83.488 61.3074 74.0977 58.9171 74.0977 56.4648V62.1123C74.1043 64.5623 83.4913 66.9581 95.0705 66.9581C106.65 66.9581 116.036 64.5623 116.042 62.1123V56.4648Z" fill="#FDCD2F"/>
<path d="M100.6 71.725C112.791 71.725 122.675 69.2087 122.675 66.6282V72.5719C122.669 75.1513 112.788 77.6732 100.6 77.6732C88.411 77.6732 78.5312 75.1513 78.5246 72.5719V66.6271C78.5246 69.2087 88.4077 71.725 100.6 71.725Z" fill="#FDCD2F"/>
<path d="M129.302 76.7137C129.302 79.3771 119.101 81.9742 106.519 81.9742C93.9371 81.9742 83.7357 79.3771 83.7357 76.7137V82.8476C83.7424 85.5099 93.9393 88.1125 106.519 88.1125C119.097 88.1125 129.295 85.5099 129.302 82.8476V76.7137Z" fill="#FDCD2F"/>
<path d="M101.258 92.4962C113.842 92.4962 124.042 89.8991 124.042 87.2357V93.3696C124.035 96.0319 113.838 98.6345 101.259 98.6345C88.6802 98.6345 78.4821 96.0319 78.4755 93.3696V87.2357C78.4755 89.9002 88.6769 92.4962 101.258 92.4962Z" fill="#FDCD2F"/>
<path d="M129.302 96.8795C129.302 99.544 119.101 102.142 106.519 102.142C93.9371 102.142 83.7357 99.5452 83.7357 96.8806V103.015C83.7424 105.677 93.9393 108.279 106.519 108.279C119.097 108.279 129.295 105.677 129.302 103.016V96.8795Z" fill="#FDCD2F"/>
<path d="M126.665 106.527C126.665 109.19 116.465 111.788 103.882 111.788C91.3001 111.788 81.0999 109.191 81.0999 106.527V112.662C81.1065 115.323 91.3034 117.926 103.882 117.926C116.462 117.926 126.658 115.323 126.665 112.662V106.527Z" fill="#FDCD2F"/>
<path d="M103.141 66.5525C103.24 66.5423 103.339 66.5318 103.437 66.5212C103.885 66.4725 104.323 66.4202 104.754 66.3649V60.7168C104.319 60.7724 103.876 60.8245 103.425 60.873C103.33 60.8833 103.235 60.8933 103.141 60.9032V66.5525Z" fill="#EEBA27"/>
<path d="M99.1081 66.8573C99.2333 66.8512 99.3582 66.8448 99.4826 66.8381C99.9001 66.8154 100.313 66.7893 100.721 66.7611V61.1115C100.184 61.1493 99.6461 61.1813 99.1081 61.2077V66.8573Z" fill="#EEBA27"/>
<path d="M78.9412 59.4651C78.3571 59.2996 77.8179 59.1262 77.3281 58.9464V64.5894C77.859 64.7838 78.3971 64.9579 78.9412 65.1112V59.4651Z" fill="#EEBA27"/>
<path d="M82.9737 60.3566C82.4152 60.2608 81.8769 60.159 81.3606 60.0518V65.6966C81.8965 65.8084 82.4343 65.9108 82.9737 66.004V60.3566Z" fill="#EEBA27"/>
<path d="M85.8913 60.7787C85.7245 60.7587 85.559 60.7382 85.3947 60.7172V66.3649C85.9195 66.4323 86.4554 66.4953 87.0078 66.5528V60.9043C86.6284 60.8656 86.2568 60.8237 85.8913 60.7787Z" fill="#EEBA27"/>
<path d="M91.0386 61.207C90.493 61.1802 89.955 61.1483 89.4255 61.1114V66.7595C89.9547 66.7971 90.4917 66.8302 91.0386 66.8557V61.207Z" fill="#EEBA27"/>
<path d="M94.6302 61.3036C94.5094 61.303 94.3888 61.3021 94.2685 61.3009V66.95C94.8062 66.9549 95.3439 66.9549 95.8816 66.95V61.3009C95.7633 61.302 95.6447 61.3029 95.5259 61.3036C95.3758 61.3049 95.2256 61.3059 95.075 61.3059C94.9261 61.3059 94.7779 61.3049 94.6302 61.3036Z" fill="#EEBA27"/>
<path d="M108.786 60.0515C108.27 60.1587 107.731 60.2605 107.173 60.3564V66.0018C107.731 65.9067 108.269 65.805 108.786 65.6966V60.0515Z" fill="#EEBA27"/>
<path d="M112.82 58.9453C112.33 59.1252 111.791 59.2987 111.207 59.4644V65.1108C111.792 64.9439 112.329 64.7703 112.82 64.589V58.9453Z" fill="#EEBA27"/>
<path d="M100.354 71.7221C100.437 71.7224 100.52 71.7226 100.604 71.7226C100.702 71.7226 100.799 71.7224 100.896 71.722C101.082 71.7213 101.268 71.7201 101.453 71.7184V77.6653C100.887 77.6704 100.32 77.6704 99.7544 77.6653V71.7184C99.9535 71.7203 100.153 71.7215 100.354 71.7221Z" fill="#EEBA27"/>
<path d="M96.3586 71.6196V77.5669C95.784 77.5381 95.2183 77.5039 94.6604 77.4652V71.519C95.2178 71.5579 95.7842 71.5915 96.3586 71.6196Z" fill="#EEBA27"/>
<path d="M91.094 71.1873C91.4285 71.2274 91.7676 71.2652 92.1121 71.3006V77.2455C91.5453 77.1864 90.9792 77.1208 90.4139 77.0487V71.1037C90.6384 71.1324 90.8651 71.1603 91.094 71.1873Z" fill="#EEBA27"/>
<path d="M87.8656 70.724V76.6684C87.2978 76.571 86.7317 76.4641 86.1674 76.3478V70.403C86.711 70.5159 87.2777 70.6231 87.8656 70.724Z" fill="#EEBA27"/>
<path d="M83.6209 69.7853V75.7288C83.0043 75.553 82.4386 75.3695 81.9227 75.1793V69.239C82.4382 69.4284 83.0058 69.611 83.6209 69.7853Z" fill="#EEBA27"/>
<path d="M117.584 75.7292V69.7852C118.199 69.6108 118.767 69.4282 119.282 69.2389V75.1797C118.773 75.3674 118.215 75.5486 117.608 75.7223C117.6 75.7246 117.592 75.7269 117.584 75.7292Z" fill="#EEBA27"/>
<path d="M115.036 70.4032V76.3467C114.493 76.4595 113.926 76.5678 113.338 76.6673V70.7241C113.926 70.6232 114.493 70.516 115.036 70.4032Z" fill="#EEBA27"/>
<path d="M110.791 71.1035V77.0476C110.239 77.1194 109.673 77.1858 109.093 77.2455V71.2995C109.12 71.2968 109.147 71.2939 109.174 71.2911C109.725 71.2337 110.264 71.171 110.791 71.1035Z" fill="#EEBA27"/>
<path d="M106.548 71.5187V77.4652C105.99 77.5039 105.425 77.5381 104.85 77.5669V71.6193C105.425 71.5912 105.991 71.5576 106.548 71.5187Z" fill="#EEBA27"/>
<path d="M110.902 88.0034C111.104 87.9935 111.305 87.9829 111.505 87.9717C111.892 87.9495 112.275 87.9245 112.654 87.8975V81.7616C112.455 81.7754 112.255 81.7887 112.054 81.8012C111.691 81.824 111.328 81.8443 110.965 81.8623C110.944 81.8633 110.923 81.8643 110.902 81.8654V88.0034Z" fill="#EEBA27"/>
<path d="M101.33 87.9598C101.598 87.9755 101.868 87.99 102.139 88.0033V81.8654C101.929 81.8551 101.721 81.8441 101.513 81.8324C101.134 81.8111 100.759 81.7875 100.387 81.7616V87.8986C100.701 87.9208 101.016 87.9412 101.33 87.9598Z" fill="#EEBA27"/>
<path d="M88.9937 79.972C88.3586 79.792 87.7725 79.6034 87.2402 79.4078V85.5386C87.8173 85.7499 88.4022 85.9391 88.9937 86.1057V79.972Z" fill="#EEBA27"/>
<path d="M93.3739 80.9408C92.7676 80.8368 92.1832 80.7262 91.6226 80.6098V86.7442C92.2043 86.8654 92.7882 86.9759 93.3739 87.0758V80.9408Z" fill="#EEBA27"/>
<path d="M96.7204 81.4207C96.4786 81.3923 96.2392 81.3629 96.0022 81.3326V87.4675C96.5855 87.5421 97.1697 87.6099 97.7546 87.671V81.5349C97.4051 81.4993 97.0605 81.4611 96.7204 81.4207Z" fill="#EEBA27"/>
<path d="M105.746 81.9683C105.711 81.968 105.677 81.9677 105.643 81.9674V88.1055C106.227 88.1108 106.811 88.1108 107.395 88.1055V81.9674C107.348 81.9679 107.302 81.9683 107.255 81.9687C107.011 81.9711 106.766 81.9727 106.519 81.9727C106.261 81.9725 106.003 81.9711 105.746 81.9683Z" fill="#EEBA27"/>
<path d="M117.034 81.3332C116.463 81.4063 115.878 81.4738 115.28 81.5355V87.6704C115.866 87.6099 116.45 87.5417 117.034 87.4659V81.3332Z" fill="#EEBA27"/>
<path d="M121.415 80.6105C120.854 80.727 120.269 80.8376 119.663 80.9416V87.0758C120.269 86.9719 120.854 86.8614 121.415 86.7453V80.6105Z" fill="#EEBA27"/>
<path d="M125.8 79.4085C125.267 79.604 124.681 79.7925 124.046 79.9725V86.1055C124.684 85.9253 125.266 85.7351 125.8 85.5383V79.4085Z" fill="#EEBA27"/>
<path d="M102.135 92.4894C101.845 92.4922 101.553 92.4936 101.26 92.4936C100.966 92.4936 100.674 92.4922 100.383 92.4894V98.6254C100.967 98.6307 101.551 98.6307 102.135 98.6254V92.4894Z" fill="#EEBA27"/>
<path d="M107.394 92.2836C106.936 92.3155 106.472 92.344 106.002 92.369C105.882 92.3754 105.762 92.3816 105.642 92.3875V98.5247C106.235 98.4971 106.82 98.4606 107.394 98.4197V92.2836Z" fill="#EEBA27"/>
<path d="M111.774 91.8552C111.204 91.9282 110.619 91.9957 110.022 92.0573V98.1931C110.607 98.1326 111.191 98.0644 111.774 97.9886V91.8552Z" fill="#EEBA27"/>
<path d="M116.159 91.1318C115.598 91.2483 115.013 91.3589 114.406 91.463V97.5969C115.014 97.4919 115.599 97.3813 116.159 97.2652V91.1318Z" fill="#EEBA27"/>
<path d="M120.539 89.9306C120.007 90.126 119.422 90.3144 118.787 90.4943V96.626C119.423 96.4447 120.007 96.2557 120.539 96.06V89.9306Z" fill="#EEBA27"/>
<path d="M83.7356 90.495C83.1006 90.315 82.5145 90.1265 81.9822 89.931V96.0607C82.5593 96.2717 83.1442 96.4605 83.7356 96.6268V90.495Z" fill="#EEBA27"/>
<path d="M88.1169 91.4636C87.5102 91.3596 86.9254 91.249 86.3645 91.1325V97.2652C86.9258 97.3813 87.5092 97.4919 88.1169 97.5969V91.4636Z" fill="#EEBA27"/>
<path d="M92.4982 92.0573C91.9004 91.9957 91.3155 91.9281 90.7447 91.8551V97.9903C91.3284 98.0645 91.9129 98.1319 92.4982 98.1926V92.0573Z" fill="#EEBA27"/>
<path d="M96.8811 92.3875C96.2885 92.3585 95.7041 92.3238 95.1288 92.2838V98.4186C95.7125 98.4598 96.2967 98.4948 96.8811 98.5236V92.3875Z" fill="#EEBA27"/>
<path d="M124.046 106.274C124.451 106.159 124.836 106.04 125.2 105.919C125.407 105.85 125.606 105.78 125.8 105.709V99.5754C125.504 99.6839 125.192 99.7903 124.865 99.8942C124.593 99.9809 124.32 100.063 124.046 100.14V106.274Z" fill="#EEBA27"/>
<path d="M119.663 107.245C120.269 107.14 120.854 107.029 121.415 106.913V100.778C120.854 100.894 120.269 101.005 119.663 101.109V107.245Z" fill="#EEBA27"/>
<path d="M115.28 107.84C115.878 107.778 116.463 107.71 117.034 107.637V101.503C116.45 101.577 115.866 101.645 115.28 101.706V107.84Z" fill="#EEBA27"/>
<path d="M110.902 108.17C111.495 108.141 112.079 108.106 112.654 108.066V101.931C112.07 101.972 111.486 102.007 110.902 102.036V108.17Z" fill="#EEBA27"/>
<path d="M105.643 108.273C105.934 108.275 106.227 108.277 106.521 108.277C106.814 108.277 107.105 108.275 107.395 108.273V102.137L107.179 102.138C106.96 102.14 106.74 102.142 106.519 102.142C106.299 102.142 106.08 102.14 105.862 102.138L105.643 102.137V108.273Z" fill="#EEBA27"/>
<path d="M100.387 108.066C100.962 108.106 101.547 108.141 102.139 108.17V102.036C101.555 102.008 100.971 101.973 100.387 101.933V108.066Z" fill="#EEBA27"/>
<path d="M96.0022 107.636C96.5726 107.709 97.1571 107.777 97.7546 107.839V101.705C97.1696 101.645 96.5854 101.577 96.0022 101.503V107.636Z" fill="#EEBA27"/>
<path d="M91.6226 106.912C92.1831 107.029 92.7676 107.139 93.3739 107.244V101.109C92.8367 101.017 92.3188 100.92 91.8187 100.818C91.753 100.805 91.6877 100.791 91.6226 100.778V106.912Z" fill="#EEBA27"/>
<path d="M87.2402 105.708C87.7725 105.904 88.3586 106.093 88.9937 106.273V100.14C88.6377 100.04 88.2829 99.932 87.9319 99.8158C87.6923 99.737 87.4616 99.6569 87.2402 99.5755V105.708Z" fill="#EEBA27"/>
<path d="M121.417 115.918C122.052 115.737 122.637 115.548 123.169 115.353V109.222C122.593 109.433 122.008 109.621 121.417 109.788V115.918Z" fill="#EEBA27"/>
<path d="M117.034 116.889C117.641 116.785 118.226 116.674 118.787 116.557V110.424C118.205 110.544 117.62 110.655 117.034 110.755V116.889Z" fill="#EEBA27"/>
<path d="M112.657 117.484C113.254 117.423 113.839 117.355 114.409 117.282V111.149C113.826 111.223 113.241 111.291 112.657 111.352V117.484Z" fill="#EEBA27"/>
<path d="M108.274 117.816C108.866 117.787 109.451 117.752 110.026 117.712V111.579C109.442 111.62 108.858 111.654 108.274 111.683V117.816Z" fill="#EEBA27"/>
<path d="M103.014 117.919C103.303 117.922 103.593 117.923 103.885 117.923C104.18 117.923 104.474 117.921 104.767 117.919V111.783L104.551 111.784C104.332 111.786 104.112 111.788 103.891 111.788C103.669 111.788 103.449 111.786 103.23 111.784L103.014 111.783V117.919Z" fill="#EEBA27"/>
<path d="M97.7586 117.713C98.3338 117.753 98.9183 117.788 99.5109 117.817V111.683C98.9187 111.654 98.3342 111.618 97.7586 111.579V117.713Z" fill="#EEBA27"/>
<path d="M93.3756 117.284C93.946 117.357 94.5305 117.424 95.1279 117.486V111.351C94.5291 111.29 93.9468 111.222 93.3756 111.149V117.284Z" fill="#EEBA27"/>
<path d="M90.6848 116.881C90.7054 116.884 90.726 116.888 90.7467 116.891V110.756C90.14 110.652 89.5552 110.542 88.9943 110.425V116.56C89.5366 116.672 90.0994 116.779 90.6848 116.881Z" fill="#EEBA27"/>
<path d="M85.9395 115.797C86.0393 115.827 86.1404 115.857 86.2428 115.886C86.2836 115.898 86.3245 115.91 86.3654 115.921V109.788C85.7309 109.608 85.1452 109.42 84.6131 109.225V115.355C85.0509 115.515 85.4932 115.663 85.9395 115.797Z" fill="#EEBA27"/>
</g>
<g clip-path="url(#clip1_2448_8782)">
<path fill-rule="evenodd" clip-rule="evenodd" d="M176.7 47.194L195.366 72.2017C195.632 72.5544 195.732 72.9972 195.647 73.4349C195.56 73.87 195.297 74.2613 194.911 74.5239L140.808 111.472C140.424 111.734 139.949 111.845 139.491 111.781C139.033 111.716 138.627 111.479 138.363 111.124L119.697 86.119C119.431 85.7663 119.332 85.3209 119.416 84.8858C119.5 84.4508 119.766 84.0569 120.15 83.7943L174.258 46.8516C175.084 46.2852 176.132 46.4319 176.7 47.194Z" fill="#3B8460"/>
<path fill-rule="evenodd" clip-rule="evenodd" d="M187.216 56.3536L201.962 83.8174C202.172 84.2036 202.205 84.6592 202.057 85.0788C201.911 85.5011 201.591 85.8512 201.172 86.0571L142.356 115.058C141.939 115.264 141.456 115.308 141.013 115.179C140.568 115.05 140.203 114.759 139.995 114.368L125.25 86.9067C125.04 86.5179 125.004 86.0648 125.153 85.6426C125.301 85.223 125.618 84.8703 126.038 84.6644L184.856 55.6662C185.756 55.2235 186.769 55.5169 187.216 56.3536Z" fill="#52B886"/>
<path fill-rule="evenodd" clip-rule="evenodd" d="M199.238 67.7632L207.8 97.7318C207.923 98.154 207.859 98.6046 207.623 98.9856C207.391 99.3666 207.005 99.642 206.552 99.7553L142.949 115.742C142.496 115.856 142.015 115.796 141.609 115.578C141.205 115.356 140.908 114.996 140.788 114.571L132.226 84.6049C132.103 84.1802 132.164 83.7271 132.4 83.3486C132.635 82.9676 133.019 82.6896 133.471 82.5763L197.08 66.5918C198.051 66.3498 198.977 66.8518 199.238 67.7632Z" fill="#86CDAA"/>
<path fill-rule="evenodd" clip-rule="evenodd" d="M166.663 79.3401C159.707 81.0984 155.638 87.8279 157.487 94.3309C159.333 100.831 166.486 104.729 173.378 102.986C180.273 101.243 184.403 94.4982 182.556 87.9952C180.71 81.4923 173.555 77.5972 166.663 79.3401ZM168.537 84.7592L168.79 85.6448C170.406 85.426 171.833 85.9537 172.585 86.7132C172.693 86.8239 172.775 86.9552 172.828 87.0942C172.961 87.5679 172.685 88.0184 172.248 88.1291C171.972 88.2089 171.667 88.1394 171.46 87.9489C170.583 87.4726 169.619 87.1457 168.491 87.4315C167.049 87.7944 166.494 88.4432 166.762 89.388C167.417 91.6947 172.946 89.1563 174.017 92.9407C174.421 94.3592 173.882 95.7622 171.879 96.5217L172.133 97.4098C172.248 97.8218 172.038 98.2568 171.596 98.3675C171.158 98.4782 170.744 98.2028 170.626 97.7909L170.373 96.9027C169.072 97.0391 167.872 96.8358 167.09 96.2127C166.931 96.1278 166.819 95.9656 166.749 95.7288C166.68 95.5074 166.711 95.2705 166.831 95.0723C166.954 94.8766 167.156 94.7325 167.391 94.6784C167.645 94.614 167.864 94.6861 168.182 94.8586C168.818 95.2062 169.734 95.3529 170.672 95.1161C171.989 94.784 172.324 94.0657 172.138 93.4144C171.552 91.3497 165.99 93.7645 164.883 89.8643C164.394 88.1471 165.205 86.7415 167.269 85.9666L167.015 85.0784C166.898 84.6665 167.11 84.2315 167.55 84.1208C168 84.0693 168.422 84.3422 168.537 84.7592ZM154.996 109.216C154.845 108.735 154.321 108.449 153.804 108.567L144.089 111.021L137.036 86.1932L146.751 83.7372C147.263 83.5956 147.564 83.1013 147.439 82.6122C147.288 82.1307 146.764 81.845 146.247 81.9634L135.594 84.6562C135.082 84.8004 134.778 85.2947 134.903 85.7813L142.463 112.383C142.611 112.864 143.135 113.15 143.654 113.031L154.308 110.341C154.82 110.2 155.121 109.703 154.996 109.216ZM205.137 96.5448L197.581 69.9435C197.43 69.4621 196.905 69.1738 196.389 69.2922L185.732 71.985C185.224 72.1292 184.919 72.6235 185.045 73.1126C185.195 73.5914 185.72 73.8746 186.236 73.7614L195.954 71.3028L203.002 96.1329L193.289 98.5864C192.78 98.7305 192.476 99.2248 192.604 99.7114C192.752 100.193 193.277 100.476 193.793 100.36L204.447 97.6673C204.958 97.5257 205.263 97.034 205.137 96.5448ZM148.206 94.7737C147.703 94.8921 147.27 95.1984 147.012 95.6232C146.751 96.048 146.685 96.5526 146.83 97.0237C146.956 97.5 147.281 97.9067 147.731 98.1513C148.178 98.3958 148.715 98.4576 149.216 98.3238C149.72 98.2053 150.15 97.8964 150.411 97.4716C150.669 97.0494 150.733 96.5423 150.59 96.0737C150.308 95.098 149.245 94.5162 148.206 94.7762V94.7737ZM191.834 87.5499C192.338 87.434 192.77 87.1251 193.029 86.7029C193.289 86.2781 193.353 85.7735 193.21 85.3024C193.085 84.8262 192.76 84.4194 192.31 84.1748C191.862 83.9328 191.328 83.8685 190.829 84.0049C190.323 84.1208 189.893 84.4271 189.632 84.8519C189.374 85.2767 189.308 85.7813 189.451 86.2524C189.576 86.7286 189.901 87.1328 190.348 87.38C190.799 87.622 191.333 87.6863 191.832 87.5499H191.834Z" fill="#DCF0E6"/>
</g>
<defs>
<clipPath id="clip0_2448_8782">
<rect width="111.927" height="112" fill="white" transform="translate(18.1211 12.1758)"/>
</clipPath>
<clipPath id="clip1_2448_8782">
<rect width="88.4753" height="89.6" fill="white" transform="translate(119.387 36.707)"/>
</clipPath>
</defs>
</svg>
