<svg width="80" height="120" viewBox="0 0 80 120" fill="none" xmlns="http://www.w3.org/2000/svg">
<path fill-rule="evenodd" clip-rule="evenodd" d="M79.4183 32.5869C79.4183 9.60725 59.0713 0 38.4042 0C18.7011 0 0.621191 14.1647 0.625001 30.1486C0.625001 36.6637 5.47552 40.0866 11.1262 40.0866C18.4097 40.0866 20.5567 35.4299 22.8526 30.4503C25.4907 24.7283 28.3255 18.5799 39.3758 18.5799C49.0692 18.5799 54.8685 23.795 54.8685 32.5908C54.8685 40.193 48.475 45.1727 41.7712 50.394C34.3835 56.1479 26.6189 62.1954 26.6189 72.3697C26.6189 77.5848 30.0101 83.2846 36.9525 83.2846C44.5442 83.2846 46.0706 79.2234 47.7227 74.8281C48.3898 73.0532 49.0775 71.2237 50.1933 69.5852C51.7505 67.2774 55.0236 64.9249 58.8369 62.1842C67.6763 55.831 79.4183 47.3916 79.4183 32.5869ZM49.6132 106.933C49.6132 99.7525 43.7064 93.8654 36.5477 93.8654C29.3777 93.8654 23.4785 99.7562 23.4785 106.933C23.4785 114.121 29.3777 120 36.5477 120C43.7177 120 49.6132 114.113 49.6132 106.933Z" fill="#F0F4FB"/>
</svg>
